<svg width="269" height="40" viewBox="0 0 269 40" fill="none" xmlns="http://www.w3.org/2000/svg">
<path d="M268.182 18.2637C268.066 18.4765 267.887 18.5829 267.645 18.5829C267.5 18.5829 267.335 18.5297 267.152 18.4233C266.968 18.3169 266.741 18.2008 266.47 18.0751C266.209 17.9397 265.894 17.8188 265.527 17.7124C265.159 17.5963 264.724 17.5383 264.221 17.5383C263.786 17.5383 263.394 17.5963 263.046 17.7124C262.697 17.8188 262.398 17.9687 262.146 18.1621C261.904 18.3556 261.716 18.5829 261.58 18.844C261.455 19.0955 261.392 19.3712 261.392 19.671C261.392 20.0483 261.498 20.3626 261.711 20.6141C261.933 20.8656 262.224 21.0832 262.581 21.267C262.939 21.4507 263.346 21.6152 263.8 21.7603C264.255 21.8957 264.719 22.0456 265.193 22.21C265.677 22.3648 266.146 22.5389 266.6 22.7323C267.055 22.9258 267.461 23.1676 267.819 23.4578C268.177 23.7479 268.462 24.1058 268.675 24.5314C268.897 24.9473 269.009 25.4503 269.009 26.0403C269.009 26.7173 268.888 27.346 268.646 27.9264C268.404 28.4971 268.046 28.9952 267.572 29.4208C267.098 29.8367 266.518 30.1655 265.831 30.4073C265.145 30.6491 264.351 30.7701 263.452 30.7701C262.427 30.7701 261.498 30.6056 260.666 30.2768C259.834 29.9382 259.128 29.5078 258.548 28.9855L259.157 27.9989C259.235 27.8732 259.327 27.7765 259.433 27.7088C259.539 27.641 259.675 27.6072 259.839 27.6072C260.013 27.6072 260.197 27.6749 260.391 27.8103C260.584 27.9457 260.816 28.0956 261.087 28.2601C261.368 28.4245 261.706 28.5744 262.103 28.7098C262.499 28.8453 262.992 28.913 263.582 28.913C264.085 28.913 264.526 28.8501 264.903 28.7244C265.28 28.5889 265.594 28.41 265.846 28.1875C266.097 27.9651 266.281 27.7088 266.397 27.4186C266.523 27.1284 266.586 26.8189 266.586 26.49C266.586 26.0838 266.475 25.7501 266.252 25.489C266.039 25.2181 265.754 24.9908 265.396 24.807C265.038 24.6136 264.627 24.4492 264.163 24.3138C263.708 24.1687 263.239 24.0188 262.756 23.864C262.282 23.7092 261.812 23.5351 261.348 23.3417C260.894 23.1386 260.487 22.8871 260.129 22.5872C259.772 22.2874 259.481 21.9199 259.259 21.4846C259.046 21.0397 258.94 20.5029 258.94 19.8742C258.94 19.3132 259.056 18.7763 259.288 18.2637C259.52 17.7414 259.859 17.2868 260.304 16.8999C260.749 16.5033 261.295 16.189 261.943 15.9568C262.591 15.7247 263.331 15.6086 264.163 15.6086C265.13 15.6086 265.996 15.7634 266.76 16.0729C267.534 16.3728 268.201 16.7887 268.762 17.3206L268.182 18.2637Z" fill="white"/>
<path d="M253.163 23.922C251.974 23.9607 250.958 24.0574 250.117 24.2122C249.285 24.3572 248.603 24.5507 248.071 24.7925C247.549 25.0343 247.166 25.3196 246.925 25.6485C246.693 25.9774 246.576 26.3449 246.576 26.7512C246.576 27.138 246.639 27.4717 246.765 27.7522C246.891 28.0327 247.06 28.2649 247.273 28.4487C247.495 28.6228 247.752 28.7533 248.042 28.8404C248.342 28.9178 248.661 28.9565 248.999 28.9565C249.454 28.9565 249.87 28.9129 250.247 28.8259C250.624 28.7292 250.977 28.5937 251.306 28.4196C251.645 28.2455 251.964 28.0376 252.264 27.7958C252.573 27.554 252.873 27.2783 253.163 26.9688V23.922ZM244.821 17.9155C245.633 17.132 246.509 16.5468 247.447 16.1599C248.385 15.773 249.425 15.5796 250.566 15.5796C251.388 15.5796 252.119 15.715 252.757 15.9858C253.395 16.2567 253.932 16.6339 254.368 17.1175C254.803 17.6011 255.132 18.1863 255.354 18.873C255.577 19.5598 255.688 20.3142 255.688 21.1364V30.5379H254.542C254.29 30.5379 254.097 30.4992 253.961 30.4218C253.826 30.3348 253.72 30.1703 253.642 29.9285L253.352 28.5357C252.965 28.8936 252.588 29.2128 252.22 29.4933C251.853 29.7641 251.466 29.9962 251.06 30.1897C250.653 30.3735 250.218 30.5137 249.754 30.6104C249.299 30.7168 248.791 30.77 248.23 30.77C247.66 30.77 247.123 30.6926 246.62 30.5379C246.117 30.3735 245.677 30.1316 245.3 29.8125C244.932 29.4933 244.637 29.0919 244.415 28.6082C244.202 28.115 244.096 27.5346 244.096 26.8672C244.096 26.2869 244.255 25.7307 244.574 25.1987C244.893 24.6571 245.411 24.1783 246.127 23.7624C246.842 23.3465 247.776 23.008 248.927 22.7468C250.078 22.476 251.49 22.3212 253.163 22.2825V21.1364C253.163 19.995 252.917 19.1342 252.423 18.5538C251.93 17.9638 251.21 17.6688 250.262 17.6688C249.623 17.6688 249.086 17.751 248.651 17.9155C248.226 18.0702 247.853 18.2492 247.534 18.4523C247.225 18.6457 246.954 18.8247 246.722 18.9891C246.499 19.1439 246.277 19.2212 246.054 19.2212C245.88 19.2212 245.73 19.1777 245.604 19.0907C245.479 18.9939 245.372 18.8779 245.285 18.7424L244.821 17.9155Z" fill="white"/>
<path d="M241.57 18.4523C241.493 18.5587 241.415 18.6409 241.338 18.699C241.26 18.757 241.154 18.786 241.019 18.786C240.874 18.786 240.714 18.728 240.54 18.6119C240.366 18.4862 240.148 18.3508 239.887 18.2057C239.635 18.0606 239.321 17.93 238.944 17.8139C238.576 17.6882 238.122 17.6253 237.58 17.6253C236.855 17.6253 236.216 17.7559 235.665 18.0171C235.114 18.2685 234.649 18.6361 234.272 19.1197C233.905 19.6033 233.624 20.1885 233.431 20.8752C233.247 21.562 233.155 22.3309 233.155 23.1821C233.155 24.0719 233.257 24.8651 233.46 25.5615C233.663 26.2482 233.948 26.8286 234.316 27.3025C234.693 27.7668 235.143 28.1247 235.665 28.3761C236.197 28.618 236.792 28.7389 237.45 28.7389C238.078 28.7389 238.596 28.6663 239.002 28.5212C239.408 28.3665 239.742 28.1972 240.003 28.0134C240.274 27.8297 240.496 27.6652 240.67 27.5201C240.854 27.3654 241.033 27.288 241.207 27.288C241.42 27.288 241.584 27.3702 241.701 27.5347L242.426 28.4777C242.107 28.8743 241.744 29.2128 241.338 29.4933C240.932 29.7738 240.491 30.0108 240.018 30.2042C239.553 30.388 239.065 30.5234 238.552 30.6105C238.04 30.6975 237.517 30.741 236.985 30.741C236.066 30.741 235.21 30.5718 234.417 30.2332C233.634 29.8947 232.952 29.4063 232.372 28.7679C231.791 28.1198 231.337 27.3267 231.008 26.3885C230.679 25.4503 230.514 24.3815 230.514 23.1821C230.514 22.0891 230.664 21.0784 230.964 20.1498C231.274 19.2213 231.719 18.4233 232.299 17.7559C232.889 17.0788 233.61 16.5517 234.461 16.1745C235.322 15.7973 236.308 15.6086 237.42 15.6086C238.455 15.6086 239.365 15.7779 240.148 16.1164C240.941 16.4453 241.642 16.9144 242.252 17.5238L241.57 18.4523Z" fill="white"/>
<path d="M227.098 15.8407V30.5378H224.516V15.8407H227.098ZM227.649 11.227C227.649 11.4784 227.596 11.7154 227.49 11.9379C227.393 12.1507 227.258 12.3441 227.084 12.5182C226.919 12.6827 226.721 12.8132 226.489 12.91C226.266 13.0067 226.029 13.055 225.778 13.055C225.526 13.055 225.289 13.0067 225.067 12.91C224.854 12.8132 224.665 12.6827 224.501 12.5182C224.337 12.3441 224.206 12.1507 224.109 11.9379C224.013 11.7154 223.964 11.4784 223.964 11.227C223.964 10.9755 224.013 10.7385 224.109 10.516C224.206 10.2839 224.337 10.0856 224.501 9.9212C224.665 9.7471 224.854 9.61168 225.067 9.51496C225.289 9.41823 225.526 9.36987 225.778 9.36987C226.029 9.36987 226.266 9.41823 226.489 9.51496C226.721 9.61168 226.919 9.7471 227.084 9.9212C227.258 10.0856 227.393 10.2839 227.49 10.516C227.596 10.7385 227.649 10.9755 227.649 11.227Z" fill="white"/>
<path d="M216.253 18.786C216.717 17.7801 217.288 16.9966 217.965 16.4356C218.642 15.8649 219.469 15.5796 220.446 15.5796C220.755 15.5796 221.05 15.6134 221.331 15.6811C221.621 15.7489 221.877 15.8553 222.1 16.0003L221.911 17.93C221.853 18.1718 221.708 18.2927 221.476 18.2927C221.34 18.2927 221.142 18.2637 220.881 18.2056C220.62 18.1476 220.325 18.1186 219.996 18.1186C219.532 18.1186 219.116 18.1863 218.748 18.3217C218.39 18.4571 218.066 18.6602 217.776 18.9311C217.496 19.1922 217.239 19.5211 217.007 19.9176C216.785 20.3045 216.582 20.7495 216.398 21.2524V30.5379H213.801V15.8407H215.281C215.561 15.8407 215.755 15.8939 215.861 16.0003C215.967 16.1067 216.04 16.2905 216.079 16.5517L216.253 18.786Z" fill="white"/>
<path d="M208.307 21.586C208.307 20.9863 208.22 20.4398 208.046 19.9465C207.882 19.4436 207.635 19.0131 207.306 18.6553C206.987 18.2877 206.595 18.0072 206.131 17.8138C205.667 17.6107 205.14 17.5091 204.55 17.5091C203.311 17.5091 202.33 17.8718 201.604 18.5972C200.889 19.313 200.444 20.3092 200.27 21.586H208.307ZM210.396 28.4775C210.077 28.8644 209.695 29.203 209.25 29.4931C208.805 29.7736 208.327 30.0058 207.814 30.1895C207.311 30.3733 206.789 30.5087 206.247 30.5958C205.705 30.6925 205.169 30.7409 204.637 30.7409C203.621 30.7409 202.683 30.5716 201.822 30.2331C200.971 29.8849 200.231 29.3819 199.602 28.7242C198.983 28.0568 198.5 27.2346 198.151 26.2577C197.803 25.2808 197.629 24.1588 197.629 22.8918C197.629 21.8665 197.784 20.9089 198.093 20.0191C198.412 19.1292 198.867 18.3603 199.457 17.7122C200.047 17.0545 200.768 16.5419 201.619 16.1743C202.47 15.7971 203.428 15.6085 204.492 15.6085C205.372 15.6085 206.184 15.7584 206.929 16.0582C207.683 16.3484 208.331 16.774 208.873 17.335C209.424 17.8863 209.855 18.5731 210.164 19.3952C210.474 20.2077 210.629 21.1362 210.629 22.1808C210.629 22.5871 210.585 22.8579 210.498 22.9933C210.411 23.1287 210.247 23.1964 210.005 23.1964H200.182C200.212 24.125 200.337 24.9326 200.56 25.6194C200.792 26.3061 201.111 26.8816 201.517 27.3459C201.924 27.8005 202.407 28.1438 202.968 28.376C203.529 28.5984 204.158 28.7097 204.854 28.7097C205.502 28.7097 206.058 28.6371 206.523 28.492C206.997 28.3373 207.403 28.1729 207.741 27.9988C208.08 27.8247 208.36 27.6651 208.583 27.52C208.815 27.3652 209.013 27.2878 209.178 27.2878C209.391 27.2878 209.555 27.3701 209.671 27.5345L210.396 28.4775ZM208.772 9.51489L205.391 13.2581C205.256 13.4032 205.12 13.5096 204.985 13.5773C204.859 13.6353 204.695 13.6643 204.492 13.6643H202.954L205.101 10.1533C205.236 9.9308 205.381 9.77121 205.536 9.67449C205.701 9.56809 205.938 9.51489 206.247 9.51489H208.772Z" fill="white"/>
<path d="M184.83 26.9977C185.304 27.6361 185.822 28.0859 186.383 28.347C186.953 28.6082 187.577 28.7387 188.254 28.7387C189.638 28.7387 190.697 28.2503 191.432 27.2734C192.167 26.2965 192.534 24.8408 192.534 22.9063C192.534 21.1073 192.206 19.787 191.548 18.9455C190.9 18.0943 189.971 17.6687 188.762 17.6687C187.921 17.6687 187.186 17.8622 186.557 18.2491C185.938 18.636 185.362 19.1825 184.83 19.8885V26.9977ZM184.83 17.9589C185.449 17.2432 186.146 16.6725 186.92 16.2469C187.703 15.8213 188.603 15.6085 189.618 15.6085C190.479 15.6085 191.253 15.773 191.94 16.1018C192.636 16.4307 193.226 16.9095 193.71 17.5382C194.193 18.1572 194.561 18.9116 194.812 19.8015C195.073 20.6914 195.204 21.6924 195.204 22.8048C195.204 23.9945 195.059 25.0778 194.769 26.0547C194.479 27.0316 194.058 27.8682 193.507 28.5646C192.965 29.2514 192.302 29.7882 191.519 30.1751C190.735 30.5523 189.855 30.7409 188.878 30.7409C187.911 30.7409 187.094 30.562 186.426 30.2041C185.769 29.8366 185.193 29.3191 184.7 28.6517L184.569 29.9865C184.492 30.354 184.269 30.5378 183.902 30.5378H182.233V9.16675H184.83V17.9589Z" fill="white"/>
<path d="M177.751 30.5378H174.937V9.74707H177.751V30.5378Z" fill="white"/>
<path d="M162.91 18.2637C162.794 18.4765 162.615 18.5829 162.373 18.5829C162.228 18.5829 162.064 18.5297 161.88 18.4233C161.696 18.3169 161.469 18.2008 161.198 18.0751C160.937 17.9397 160.622 17.8188 160.255 17.7124C159.887 17.5963 159.452 17.5383 158.949 17.5383C158.514 17.5383 158.122 17.5963 157.774 17.7124C157.426 17.8188 157.126 17.9687 156.874 18.1621C156.632 18.3556 156.444 18.5829 156.308 18.844C156.183 19.0955 156.12 19.3712 156.12 19.671C156.12 20.0483 156.226 20.3626 156.439 20.6141C156.662 20.8656 156.952 21.0832 157.31 21.267C157.667 21.4507 158.074 21.6152 158.528 21.7603C158.983 21.8957 159.447 22.0456 159.921 22.21C160.405 22.3648 160.874 22.5389 161.328 22.7323C161.783 22.9258 162.189 23.1676 162.547 23.4578C162.905 23.7479 163.19 24.1058 163.403 24.5314C163.626 24.9473 163.737 25.4503 163.737 26.0403C163.737 26.7173 163.616 27.346 163.374 27.9264C163.132 28.4971 162.774 28.9952 162.3 29.4208C161.827 29.8367 161.246 30.1655 160.559 30.4073C159.873 30.6491 159.08 30.7701 158.18 30.7701C157.155 30.7701 156.226 30.6056 155.394 30.2768C154.563 29.9382 153.857 29.5078 153.276 28.9855L153.886 27.9989C153.963 27.8732 154.055 27.7765 154.161 27.7088C154.268 27.641 154.403 27.6072 154.567 27.6072C154.742 27.6072 154.925 27.6749 155.119 27.8103C155.312 27.9457 155.544 28.0956 155.815 28.2601C156.096 28.4245 156.434 28.5744 156.831 28.7098C157.227 28.8453 157.721 28.913 158.311 28.913C158.814 28.913 159.254 28.8501 159.631 28.7244C160.008 28.5889 160.322 28.41 160.574 28.1875C160.825 27.9651 161.009 27.7088 161.125 27.4186C161.251 27.1284 161.314 26.8189 161.314 26.49C161.314 26.0838 161.203 25.7501 160.98 25.489C160.767 25.2181 160.482 24.9908 160.124 24.807C159.766 24.6136 159.355 24.4492 158.891 24.3138C158.436 24.1687 157.967 24.0188 157.484 23.864C157.01 23.7092 156.541 23.5351 156.076 23.3417C155.622 23.1386 155.215 22.8871 154.858 22.5872C154.5 22.2874 154.21 21.9199 153.987 21.4846C153.774 21.0397 153.668 20.5029 153.668 19.8742C153.668 19.3132 153.784 18.7763 154.016 18.2637C154.248 17.7414 154.587 17.2868 155.032 16.8999C155.477 16.5033 156.023 16.189 156.671 15.9568C157.319 15.7247 158.059 15.6086 158.891 15.6086C159.858 15.6086 160.724 15.7634 161.488 16.0729C162.262 16.3728 162.929 16.7887 163.49 17.3206L162.91 18.2637Z" fill="white"/>
<path d="M140.607 17.9735C140.926 17.6157 141.265 17.2916 141.622 17.0015C141.98 16.7113 142.357 16.4646 142.754 16.2615C143.16 16.0487 143.586 15.8891 144.031 15.7827C144.485 15.6667 144.974 15.6086 145.496 15.6086C146.299 15.6086 147.005 15.7441 147.614 16.0149C148.233 16.276 148.746 16.6533 149.152 17.1465C149.568 17.6302 149.883 18.2153 150.095 18.9021C150.308 19.5888 150.415 20.3481 150.415 21.1799V30.5379H147.818V21.1799C147.818 20.0676 147.561 19.2068 147.049 18.5974C146.546 17.9784 145.777 17.6689 144.742 17.6689C143.978 17.6689 143.262 17.8526 142.594 18.2202C141.937 18.5877 141.327 19.0859 140.766 19.7146V30.5379H138.169V15.8408H139.722C140.089 15.8408 140.317 16.0197 140.404 16.3776L140.607 17.9735Z" fill="white"/>
<path d="M132.676 21.5862C132.676 20.9865 132.589 20.44 132.415 19.9467C132.25 19.4437 132.004 19.0133 131.675 18.6554C131.356 18.2879 130.964 18.0074 130.5 17.8139C130.035 17.6108 129.508 17.5093 128.918 17.5093C127.68 17.5093 126.698 17.872 125.973 18.5974C125.257 19.3132 124.812 20.3094 124.638 21.5862H132.676ZM134.765 28.4777C134.446 28.8646 134.064 29.2031 133.619 29.4933C133.174 29.7738 132.695 30.0059 132.183 30.1897C131.68 30.3735 131.157 30.5089 130.616 30.596C130.074 30.6927 129.537 30.741 129.005 30.741C127.99 30.741 127.051 30.5718 126.191 30.2332C125.339 29.885 124.6 29.3821 123.971 28.7244C123.352 28.057 122.868 27.2348 122.52 26.2579C122.172 25.281 121.998 24.159 121.998 22.8919C121.998 21.8667 122.152 20.9091 122.462 20.0192C122.781 19.1294 123.236 18.3604 123.826 17.7124C124.416 17.0547 125.136 16.542 125.988 16.1745C126.839 15.7973 127.796 15.6086 128.86 15.6086C129.74 15.6086 130.553 15.7586 131.298 16.0584C132.052 16.3486 132.7 16.7742 133.242 17.3352C133.793 17.8865 134.224 18.5732 134.533 19.3954C134.843 20.2078 134.997 21.1364 134.997 22.181C134.997 22.5872 134.954 22.8581 134.867 22.9935C134.78 23.1289 134.615 23.1966 134.373 23.1966H124.551C124.58 24.1251 124.706 24.9328 124.928 25.6195C125.161 26.3063 125.48 26.8818 125.886 27.346C126.292 27.8006 126.776 28.144 127.337 28.3761C127.898 28.5986 128.527 28.7098 129.223 28.7098C129.871 28.7098 130.427 28.6373 130.891 28.4922C131.365 28.3375 131.772 28.173 132.11 27.9989C132.449 27.8248 132.729 27.6652 132.952 27.5201C133.184 27.3654 133.382 27.288 133.546 27.288C133.759 27.288 133.924 27.3702 134.04 27.5347L134.765 28.4777Z" fill="white"/>
<path d="M113.112 23.3561C113.634 23.3561 114.094 23.2835 114.49 23.1384C114.887 22.9933 115.221 22.7902 115.491 22.5291C115.762 22.2679 115.965 21.9584 116.101 21.6005C116.236 21.233 116.304 20.8316 116.304 20.3963C116.304 19.4968 116.028 18.781 115.477 18.2491C114.935 17.7171 114.147 17.4511 113.112 17.4511C112.067 17.4511 111.269 17.7171 110.718 18.2491C110.177 18.781 109.906 19.4968 109.906 20.3963C109.906 20.8316 109.973 21.233 110.109 21.6005C110.254 21.9584 110.462 22.2679 110.733 22.5291C111.004 22.7902 111.337 22.9933 111.734 23.1384C112.13 23.2835 112.59 23.3561 113.112 23.3561ZM117.769 31.3357C117.769 30.9779 117.668 30.6877 117.465 30.4652C117.262 30.2428 116.986 30.0687 116.638 29.9429C116.299 29.8172 115.903 29.7301 115.448 29.6818C114.993 29.6237 114.51 29.5802 113.997 29.5512C113.494 29.5222 112.982 29.4932 112.459 29.4641C111.937 29.4351 111.434 29.3868 110.95 29.3191C110.409 29.5705 109.964 29.8897 109.616 30.2766C109.277 30.6538 109.108 31.0988 109.108 31.6114C109.108 31.9403 109.19 32.2449 109.354 32.5254C109.528 32.8156 109.79 33.0623 110.138 33.2654C110.486 33.4782 110.921 33.6426 111.444 33.7587C111.976 33.8844 112.599 33.9473 113.315 33.9473C114.012 33.9473 114.635 33.8844 115.187 33.7587C115.738 33.6329 116.202 33.454 116.58 33.2219C116.967 32.9897 117.262 32.7141 117.465 32.3949C117.668 32.0757 117.769 31.7226 117.769 31.3357ZM120.395 16.421V17.3785C120.395 17.6977 120.192 17.9009 119.786 17.9879L118.118 18.2055C118.446 18.8439 118.611 19.55 118.611 20.3238C118.611 21.0395 118.471 21.6924 118.19 22.2824C117.919 22.8628 117.542 23.3609 117.058 23.7768C116.575 24.1927 115.994 24.5119 115.317 24.7344C114.64 24.9568 113.905 25.0681 113.112 25.0681C112.425 25.0681 111.777 24.9858 111.168 24.8214C110.858 25.0149 110.621 25.2228 110.457 25.4453C110.293 25.6581 110.21 25.8757 110.21 26.0982C110.21 26.4464 110.351 26.7124 110.631 26.8961C110.921 27.0702 111.299 27.196 111.763 27.2734C112.227 27.3507 112.754 27.3991 113.344 27.4184C113.944 27.4378 114.553 27.4716 115.172 27.52C115.801 27.5587 116.41 27.6312 117 27.7376C117.6 27.844 118.132 28.0181 118.596 28.2599C119.061 28.5017 119.433 28.8354 119.713 29.261C120.004 29.6866 120.149 30.2379 120.149 30.915C120.149 31.5437 119.989 32.1531 119.67 32.7431C119.36 33.3331 118.911 33.8554 118.321 34.31C117.731 34.7743 117.005 35.1418 116.144 35.4126C115.293 35.6931 114.331 35.8334 113.257 35.8334C112.184 35.8334 111.245 35.727 110.443 35.5142C109.64 35.3014 108.972 35.0161 108.44 34.6582C107.908 34.3003 107.507 33.8844 107.236 33.4105C106.975 32.9462 106.844 32.4577 106.844 31.9451C106.844 31.2197 107.072 30.6055 107.526 30.1025C107.981 29.5996 108.605 29.1982 109.398 28.8983C108.963 28.7049 108.614 28.4485 108.353 28.1294C108.102 27.8005 107.976 27.3604 107.976 26.8091C107.976 26.5963 108.015 26.3787 108.092 26.1562C108.17 25.9241 108.286 25.6968 108.44 25.4743C108.605 25.2422 108.803 25.0245 109.035 24.8214C109.267 24.6183 109.538 24.4394 109.848 24.2846C109.122 23.8784 108.556 23.3415 108.15 22.6742C107.744 21.9971 107.541 21.2136 107.541 20.3238C107.541 19.608 107.676 18.96 107.947 18.3796C108.228 17.7896 108.614 17.2915 109.108 16.8853C109.601 16.4693 110.186 16.1502 110.863 15.9277C111.55 15.7052 112.3 15.594 113.112 15.594C113.75 15.594 114.345 15.6665 114.897 15.8116C115.448 15.947 115.951 16.1502 116.406 16.421H120.395Z" fill="white"/>
<path d="M101.532 23.922C100.343 23.9607 99.3269 24.0574 98.4855 24.2122C97.6536 24.3572 96.9717 24.5507 96.4398 24.7925C95.9174 25.0343 95.5354 25.3196 95.2936 25.6485C95.0614 25.9774 94.9454 26.3449 94.9454 26.7512C94.9454 27.138 95.0082 27.4717 95.134 27.7522C95.2597 28.0327 95.429 28.2649 95.6418 28.4487C95.8642 28.6228 96.1206 28.7533 96.4107 28.8404C96.7106 28.9178 97.0298 28.9565 97.3683 28.9565C97.8229 28.9565 98.2388 28.9129 98.616 28.8259C98.9933 28.7292 99.3463 28.5937 99.6752 28.4196C100.014 28.2455 100.333 28.0376 100.633 27.7958C100.942 27.554 101.242 27.2783 101.532 26.9688V23.922ZM93.1898 17.9155C94.0023 17.132 94.8777 16.5468 95.8159 16.1599C96.7541 15.773 97.7939 15.5796 98.9352 15.5796C99.7574 15.5796 100.488 15.715 101.126 15.9858C101.764 16.2567 102.301 16.6339 102.736 17.1175C103.172 17.6011 103.501 18.1863 103.723 18.873C103.945 19.5598 104.057 20.3142 104.057 21.1364V30.5379H102.911C102.659 30.5379 102.466 30.4992 102.33 30.4218C102.195 30.3348 102.088 30.1703 102.011 29.9285L101.721 28.5357C101.334 28.8936 100.957 29.2128 100.589 29.4933C100.222 29.7641 99.8347 29.9962 99.4285 30.1897C99.0223 30.3735 98.587 30.5137 98.1227 30.6104C97.6681 30.7168 97.1603 30.77 96.5993 30.77C96.0287 30.77 95.4919 30.6926 94.9889 30.5379C94.4859 30.3735 94.0458 30.1316 93.6686 29.8125C93.3011 29.4933 93.0061 29.0919 92.7836 28.6082C92.5708 28.115 92.4644 27.5346 92.4644 26.8672C92.4644 26.2869 92.624 25.7307 92.9432 25.1987C93.2624 24.6571 93.7799 24.1783 94.4956 23.7624C95.2114 23.3465 96.1447 23.008 97.2958 22.7468C98.4468 22.476 99.8589 22.3212 101.532 22.2825V21.1364C101.532 19.995 101.286 19.1342 100.792 18.5538C100.299 17.9638 99.5784 17.6688 98.6305 17.6688C97.9922 17.6688 97.4553 17.751 97.0201 17.9155C96.5945 18.0702 96.2221 18.2492 95.9029 18.4523C95.5934 18.6457 95.3226 18.8247 95.0905 18.9891C94.868 19.1439 94.6455 19.2212 94.4231 19.2212C94.249 19.2212 94.099 19.1777 93.9733 19.0907C93.8476 18.9939 93.7412 18.8779 93.6541 18.7424L93.1898 17.9155Z" fill="white"/>
<path d="M89.3238 15.8407V30.5378H86.7413V15.8407H89.3238ZM89.8752 11.227C89.8752 11.4784 89.822 11.7154 89.7156 11.9379C89.6188 12.1507 89.4834 12.3441 89.3093 12.5182C89.1449 12.6827 88.9466 12.8132 88.7145 12.91C88.492 13.0067 88.255 13.055 88.0036 13.055C87.7521 13.055 87.5151 13.0067 87.2927 12.91C87.0799 12.8132 86.8912 12.6827 86.7268 12.5182C86.5624 12.3441 86.4318 12.1507 86.3351 11.9379C86.2384 11.7154 86.19 11.4784 86.19 11.227C86.19 10.9755 86.2384 10.7385 86.3351 10.516C86.4318 10.2839 86.5624 10.0856 86.7268 9.9212C86.8912 9.7471 87.0799 9.61168 87.2927 9.51496C87.5151 9.41823 87.7521 9.36987 88.0036 9.36987C88.255 9.36987 88.492 9.41823 88.7145 9.51496C88.9466 9.61168 89.1449 9.7471 89.3093 9.9212C89.4834 10.0856 89.6188 10.2839 89.7156 10.516C89.822 10.7385 89.8752 10.9755 89.8752 11.227Z" fill="white"/>
<path d="M84.4704 9.74707L75.9975 30.5378H73.473L65 9.74707H67.2488C67.5003 9.74707 67.7034 9.80994 67.8582 9.93568C68.0129 10.0614 68.129 10.221 68.2064 10.4145L74.0678 25.0826C74.1936 25.4114 74.3145 25.7693 74.4305 26.1562C74.5563 26.5431 74.6675 26.9493 74.7642 27.3749C74.861 26.9493 74.9625 26.5431 75.0689 26.1562C75.1753 25.7693 75.2914 25.4114 75.4171 25.0826L81.2641 10.4145C81.3221 10.25 81.4333 10.1001 81.5978 9.9647C81.7719 9.81961 81.9798 9.74707 82.2216 9.74707H84.4704Z" fill="white"/>
<path d="M20.839 17.3287C15.3398 1.18577 18.3088 0.0551281 1.95265 0.0551281C4.48417 6.15527 7.5652 13.7745 10.0967 19.8746C13.6766 19.0259 17.2578 18.1773 20.8377 17.3287M26.9504 18.0203C25.8833 21.1156 25.0684 23.607 24.0014 26.7037C23.1731 24.2721 22.3448 21.8406 21.5166 19.409C14.3448 21.923 7.17174 24.4384 0 26.9524C4.18274 26.4962 8.36547 26.0386 12.5482 25.5823L18.5315 40H29.5272C33.3152 30.8724 36.8537 22.3487 40.6416 13.2211C36.0774 14.8213 31.5132 16.4215 26.949 18.0217L26.9504 18.0203ZM46.1075 0.0551281C31.6213 -0.326629 32.9244 0.930377 28.0841 14.9756C37.2058 12.8127 51.6667 8.9433 51.6667 8.9433L42.6343 8.42054C43.792 5.63118 44.9497 2.84316 46.1075 0.0537987V0.0551281Z" fill="#B91C1C"/>
</svg>
