<svg width="216" height="32" viewBox="0 0 216 32" fill="none" xmlns="http://www.w3.org/2000/svg">
<path d="M214.545 14.6106C214.453 14.7809 214.309 14.866 214.116 14.866C214 14.866 213.868 14.8234 213.721 14.7383C213.574 14.6532 213.392 14.5603 213.176 14.4597C212.967 14.3514 212.715 14.2547 212.421 14.1696C212.127 14.0767 211.779 14.0303 211.377 14.0303C211.029 14.0303 210.715 14.0767 210.437 14.1696C210.158 14.2547 209.918 14.3746 209.717 14.5294C209.523 14.6841 209.373 14.866 209.264 15.0749C209.164 15.2761 209.113 15.4966 209.113 15.7365C209.113 16.0383 209.199 16.2897 209.369 16.4909C209.547 16.6921 209.779 16.8662 210.065 17.0132C210.351 17.1603 210.676 17.2918 211.04 17.4079C211.404 17.5162 211.775 17.6361 212.154 17.7677C212.541 17.8915 212.917 18.0308 213.28 18.1855C213.644 18.3403 213.969 18.5337 214.255 18.7659C214.542 18.998 214.77 19.2843 214.94 19.6248C215.118 19.9575 215.207 20.3599 215.207 20.8319C215.207 21.3735 215.11 21.8765 214.917 22.3408C214.723 22.7973 214.437 23.1958 214.058 23.5363C213.679 23.869 213.214 24.1321 212.665 24.3255C212.116 24.519 211.481 24.6157 210.762 24.6157C209.941 24.6157 209.199 24.4842 208.533 24.2211C207.868 23.9502 207.303 23.6059 206.838 23.1881L207.326 22.3988C207.388 22.2982 207.461 22.2208 207.546 22.1667C207.632 22.1125 207.74 22.0854 207.871 22.0854C208.011 22.0854 208.158 22.1396 208.313 22.2479C208.467 22.3562 208.653 22.4762 208.87 22.6077C209.094 22.7393 209.365 22.8592 209.682 22.9675C209.999 23.0759 210.394 23.13 210.866 23.13C211.268 23.13 211.62 23.0797 211.922 22.9791C212.224 22.8708 212.475 22.7277 212.677 22.5497C212.878 22.3717 213.025 22.1667 213.118 21.9345C213.218 21.7024 213.269 21.4548 213.269 21.1917C213.269 20.8667 213.18 20.5997 213.002 20.3908C212.831 20.1742 212.603 19.9923 212.317 19.8453C212.031 19.6905 211.702 19.559 211.33 19.4507C210.967 19.3346 210.591 19.2147 210.204 19.0909C209.825 18.967 209.45 18.8278 209.079 18.673C208.715 18.5105 208.39 18.3093 208.104 18.0695C207.817 17.8296 207.585 17.5355 207.407 17.1873C207.237 16.8314 207.152 16.4019 207.152 15.899C207.152 15.4502 207.245 15.0207 207.43 14.6106C207.616 14.1928 207.887 13.8291 208.243 13.5196C208.599 13.2023 209.036 12.9508 209.554 12.7651C210.073 12.5794 210.665 12.4866 211.33 12.4866C212.104 12.4866 212.797 12.6104 213.408 12.858C214.027 13.0979 214.561 13.4306 215.01 13.8562L214.545 14.6106Z" fill="white"/>
<path d="M202.531 19.1373C201.579 19.1683 200.766 19.2456 200.093 19.3694C199.428 19.4855 198.882 19.6403 198.457 19.8337C198.039 20.0272 197.733 20.2554 197.54 20.5185C197.354 20.7816 197.261 21.0756 197.261 21.4006C197.261 21.7101 197.311 21.9771 197.412 22.2015C197.513 22.4259 197.648 22.6116 197.818 22.7586C197.996 22.8979 198.201 23.0024 198.433 23.072C198.673 23.1339 198.929 23.1649 199.2 23.1649C199.563 23.1649 199.896 23.13 200.198 23.0604C200.499 22.983 200.782 22.8747 201.045 22.7354C201.316 22.5961 201.571 22.4298 201.811 22.2363C202.059 22.0429 202.299 21.8223 202.531 21.5747V19.1373ZM195.857 14.3321C196.507 13.7053 197.207 13.2372 197.958 12.9277C198.708 12.6181 199.54 12.4634 200.453 12.4634C201.111 12.4634 201.695 12.5717 202.206 12.7884C202.716 13.005 203.146 13.3068 203.494 13.6937C203.842 14.0806 204.105 14.5487 204.283 15.0981C204.461 15.6475 204.55 16.2511 204.55 16.9088V24.43H203.633C203.432 24.43 203.277 24.3991 203.169 24.3372C203.061 24.2675 202.976 24.136 202.914 23.9425L202.682 22.8283C202.372 23.1146 202.07 23.3699 201.776 23.5943C201.482 23.811 201.173 23.9967 200.848 24.1514C200.523 24.2985 200.175 24.4107 199.803 24.488C199.439 24.5732 199.033 24.6157 198.584 24.6157C198.128 24.6157 197.698 24.5538 197.296 24.43C196.894 24.2985 196.542 24.105 196.24 23.8497C195.946 23.5943 195.71 23.2732 195.532 22.8863C195.362 22.4917 195.276 22.0274 195.276 21.4935C195.276 21.0292 195.404 20.5843 195.659 20.1587C195.915 19.7254 196.329 19.3424 196.901 19.0096C197.474 18.6769 198.221 18.4061 199.142 18.1971C200.062 17.9805 201.192 17.8567 202.531 17.8257V16.9088C202.531 15.9957 202.333 15.307 201.939 14.8428C201.544 14.3708 200.968 14.1348 200.209 14.1348C199.699 14.1348 199.269 14.2005 198.921 14.3321C198.581 14.4559 198.283 14.599 198.027 14.7615C197.78 14.9163 197.563 15.0594 197.377 15.191C197.199 15.3148 197.021 15.3767 196.843 15.3767C196.704 15.3767 196.584 15.3419 196.484 15.2722C196.383 15.1949 196.298 15.102 196.228 14.9937L195.857 14.3321Z" fill="white"/>
<path d="M193.256 14.7615C193.194 14.8466 193.132 14.9124 193.07 14.9588C193.008 15.0053 192.923 15.0285 192.815 15.0285C192.699 15.0285 192.571 14.982 192.432 14.8892C192.293 14.7886 192.118 14.6803 191.91 14.5642C191.708 14.4481 191.457 14.3437 191.155 14.2508C190.861 14.1502 190.497 14.0999 190.064 14.0999C189.484 14.0999 188.973 14.2044 188.532 14.4133C188.091 14.6145 187.72 14.9085 187.418 15.2954C187.124 15.6823 186.899 16.1505 186.745 16.6998C186.598 17.2492 186.524 17.8644 186.524 18.5453C186.524 19.2572 186.605 19.8917 186.768 20.4489C186.93 20.9982 187.159 21.4625 187.453 21.8417C187.754 22.2131 188.114 22.4994 188.532 22.7006C188.958 22.894 189.433 22.9907 189.96 22.9907C190.463 22.9907 190.877 22.9327 191.202 22.8166C191.527 22.6928 191.793 22.5574 192.002 22.4104C192.219 22.2634 192.397 22.1318 192.536 22.0158C192.683 21.892 192.827 21.8301 192.966 21.8301C193.136 21.8301 193.268 21.8958 193.36 22.0274L193.941 22.7818C193.685 23.0991 193.395 23.3699 193.07 23.5943C192.745 23.8187 192.393 24.0083 192.014 24.163C191.643 24.3101 191.252 24.4184 190.842 24.488C190.432 24.5577 190.014 24.5925 189.588 24.5925C188.853 24.5925 188.168 24.4571 187.534 24.1862C186.907 23.9154 186.362 23.5247 185.897 23.014C185.433 22.4955 185.069 21.861 184.806 21.1104C184.543 20.3599 184.412 19.5048 184.412 18.5453C184.412 17.671 184.532 16.8623 184.771 16.1195C185.019 15.3767 185.375 14.7383 185.839 14.2044C186.311 13.6627 186.888 13.241 187.569 12.9392C188.257 12.6375 189.047 12.4866 189.936 12.4866C190.764 12.4866 191.492 12.622 192.118 12.8928C192.753 13.1559 193.314 13.5312 193.801 14.0187L193.256 14.7615Z" fill="white"/>
<path d="M181.678 12.6725V24.4302H179.612V12.6725H181.678ZM182.12 8.98152C182.12 9.18271 182.077 9.37229 181.992 9.55026C181.914 9.72049 181.806 9.87525 181.667 10.0145C181.535 10.1461 181.377 10.2505 181.191 10.3279C181.013 10.4053 180.823 10.444 180.622 10.444C180.421 10.444 180.231 10.4053 180.054 10.3279C179.883 10.2505 179.732 10.1461 179.601 10.0145C179.469 9.87525 179.365 9.72049 179.287 9.55026C179.21 9.37229 179.171 9.18271 179.171 8.98152C179.171 8.78034 179.21 8.59076 179.287 8.41279C179.365 8.22708 179.469 8.06845 179.601 7.93691C179.732 7.79763 179.883 7.6893 180.054 7.61192C180.231 7.53454 180.421 7.49585 180.622 7.49585C180.823 7.49585 181.013 7.53454 181.191 7.61192C181.377 7.6893 181.535 7.79763 181.667 7.93691C181.806 8.06845 181.914 8.22708 181.992 8.41279C182.077 8.59076 182.12 8.78034 182.12 8.98152Z" fill="white"/>
<path d="M173.002 15.0285C173.374 14.2237 173.83 13.597 174.372 13.1482C174.914 12.6916 175.575 12.4634 176.357 12.4634C176.604 12.4634 176.84 12.4905 177.065 12.5446C177.297 12.5988 177.502 12.6839 177.68 12.8L177.529 14.3437C177.482 14.5371 177.366 14.6339 177.181 14.6339C177.072 14.6339 176.914 14.6106 176.705 14.5642C176.496 14.5178 176.26 14.4946 175.997 14.4946C175.625 14.4946 175.293 14.5487 174.999 14.6571C174.712 14.7654 174.453 14.9279 174.221 15.1446C173.997 15.3535 173.792 15.6166 173.606 15.9338C173.428 16.2433 173.265 16.5993 173.118 17.0016V24.43H171.041V12.6723H172.225C172.449 12.6723 172.604 12.7149 172.689 12.8C172.774 12.8851 172.832 13.0321 172.863 13.241L173.002 15.0285Z" fill="white"/>
<path d="M166.646 17.2687C166.646 16.7889 166.576 16.3518 166.437 15.9571C166.305 15.5548 166.108 15.2104 165.845 14.9241C165.59 14.6301 165.276 14.4057 164.905 14.2509C164.533 14.0884 164.112 14.0072 163.64 14.0072C162.649 14.0072 161.864 14.2973 161.283 14.8777C160.711 15.4503 160.355 16.2473 160.216 17.2687H166.646ZM168.317 22.7819C168.062 23.0914 167.756 23.3623 167.4 23.5944C167.044 23.8188 166.661 24.0045 166.251 24.1515C165.849 24.2986 165.431 24.4069 164.998 24.4765C164.564 24.5539 164.135 24.5926 163.709 24.5926C162.897 24.5926 162.146 24.4572 161.458 24.1864C160.777 23.9078 160.185 23.5054 159.682 22.9792C159.187 22.4453 158.8 21.7876 158.521 21.0061C158.242 20.2246 158.103 19.327 158.103 18.3133C158.103 17.4931 158.227 16.727 158.475 16.0152C158.73 15.3033 159.094 14.6881 159.566 14.1697C160.038 13.6435 160.614 13.2334 161.295 12.9393C161.976 12.6376 162.742 12.4867 163.593 12.4867C164.297 12.4867 164.947 12.6066 165.543 12.8465C166.147 13.0786 166.665 13.4191 167.098 13.8679C167.54 14.309 167.884 14.8583 168.131 15.5161C168.379 16.166 168.503 16.9089 168.503 17.7446C168.503 18.0696 168.468 18.2862 168.398 18.3946C168.329 18.5029 168.197 18.557 168.004 18.557H160.146C160.169 19.2999 160.27 19.946 160.448 20.4954C160.633 21.0448 160.889 21.5052 161.214 21.8766C161.539 22.2403 161.926 22.515 162.375 22.7007C162.823 22.8787 163.326 22.9676 163.883 22.9676C164.402 22.9676 164.847 22.9096 165.218 22.7935C165.597 22.6697 165.922 22.5382 166.193 22.3989C166.464 22.2596 166.688 22.132 166.866 22.0159C167.052 21.8921 167.211 21.8302 167.342 21.8302C167.512 21.8302 167.644 21.8959 167.737 22.0275L168.317 22.7819ZM167.017 7.61182L164.313 10.6064C164.205 10.7224 164.096 10.8076 163.988 10.8617C163.887 10.9082 163.756 10.9314 163.593 10.9314H162.363L164.081 8.12252C164.189 7.94455 164.305 7.81687 164.429 7.73949C164.56 7.65437 164.75 7.61182 164.998 7.61182H167.017Z" fill="white"/>
<path d="M147.864 21.598C148.243 22.1087 148.657 22.4685 149.106 22.6775C149.563 22.8864 150.062 22.9909 150.604 22.9909C151.71 22.9909 152.557 22.6001 153.145 21.8186C153.734 21.037 154.028 19.8725 154.028 18.3249C154.028 16.8857 153.764 15.8294 153.238 15.1562C152.72 14.4753 151.977 14.1348 151.01 14.1348C150.337 14.1348 149.748 14.2896 149.246 14.5991C148.75 14.9086 148.29 15.3458 147.864 15.9107V21.598ZM147.864 14.367C148.36 13.7944 148.917 13.3378 149.536 12.9974C150.162 12.6569 150.882 12.4867 151.695 12.4867C152.383 12.4867 153.002 12.6182 153.552 12.8813C154.109 13.1444 154.581 13.5274 154.968 14.0304C155.355 14.5256 155.649 15.1292 155.85 15.8411C156.059 16.5529 156.163 17.3538 156.163 18.2437C156.163 19.1954 156.047 20.0621 155.815 20.8436C155.583 21.6251 155.246 22.2944 154.805 22.8516C154.372 23.401 153.842 23.8304 153.215 24.1399C152.588 24.4417 151.884 24.5926 151.103 24.5926C150.329 24.5926 149.675 24.4494 149.141 24.1631C148.615 23.8691 148.154 23.4551 147.76 22.9212L147.655 23.989C147.593 24.2831 147.416 24.4301 147.121 24.4301H145.787V7.33325H147.864V14.367Z" fill="white"/>
<path d="M142.201 24.4302H139.949V7.79761H142.201V24.4302Z" fill="white"/>
<path d="M130.328 14.6106C130.235 14.7809 130.092 14.866 129.898 14.866C129.782 14.866 129.651 14.8234 129.504 14.7383C129.357 14.6532 129.175 14.5603 128.958 14.4597C128.749 14.3514 128.498 14.2547 128.204 14.1696C127.91 14.0767 127.562 14.0303 127.159 14.0303C126.811 14.0303 126.498 14.0767 126.219 14.1696C125.94 14.2547 125.701 14.3746 125.499 14.5294C125.306 14.6841 125.155 14.866 125.047 15.0749C124.946 15.2761 124.896 15.4966 124.896 15.7365C124.896 16.0383 124.981 16.2897 125.151 16.4909C125.329 16.6921 125.561 16.8662 125.848 17.0132C126.134 17.1603 126.459 17.2918 126.823 17.4079C127.186 17.5162 127.558 17.6361 127.937 17.7677C128.324 17.8915 128.699 18.0308 129.063 18.1855C129.426 18.3403 129.751 18.5337 130.038 18.7659C130.324 18.998 130.552 19.2843 130.723 19.6248C130.9 19.9575 130.989 20.3599 130.989 20.8319C130.989 21.3735 130.893 21.8765 130.699 22.3408C130.506 22.7973 130.22 23.1958 129.84 23.5363C129.461 23.869 128.997 24.1321 128.448 24.3255C127.898 24.519 127.264 24.6157 126.544 24.6157C125.724 24.6157 124.981 24.4842 124.316 24.2211C123.65 23.9502 123.085 23.6059 122.621 23.1881L123.108 22.3988C123.17 22.2982 123.244 22.2208 123.329 22.1667C123.414 22.1125 123.522 22.0854 123.654 22.0854C123.793 22.0854 123.94 22.1396 124.095 22.2479C124.25 22.3562 124.435 22.4762 124.652 22.6077C124.877 22.7393 125.147 22.8592 125.465 22.9675C125.782 23.0759 126.177 23.13 126.649 23.13C127.051 23.13 127.403 23.0797 127.705 22.9791C128.007 22.8708 128.258 22.7277 128.459 22.5497C128.66 22.3717 128.807 22.1667 128.9 21.9345C129.001 21.7024 129.051 21.4548 129.051 21.1917C129.051 20.8667 128.962 20.5997 128.784 20.3908C128.614 20.1742 128.386 19.9923 128.099 19.8453C127.813 19.6905 127.484 19.559 127.113 19.4507C126.749 19.3346 126.374 19.2147 125.987 19.0909C125.608 18.967 125.232 18.8278 124.861 18.673C124.497 18.5105 124.172 18.3093 123.886 18.0695C123.6 17.8296 123.368 17.5355 123.19 17.1873C123.019 16.8314 122.934 16.4019 122.934 15.899C122.934 15.4502 123.027 15.0207 123.213 14.6106C123.399 14.1928 123.669 13.8291 124.025 13.5196C124.381 13.2023 124.819 12.9508 125.337 12.7651C125.855 12.5794 126.447 12.4866 127.113 12.4866C127.887 12.4866 128.579 12.6104 129.19 12.858C129.809 13.0979 130.343 13.4306 130.792 13.8562L130.328 14.6106Z" fill="white"/>
<path d="M112.485 14.3785C112.741 14.0922 113.012 13.833 113.298 13.6008C113.584 13.3687 113.886 13.1714 114.203 13.0089C114.528 12.8386 114.869 12.711 115.225 12.6259C115.588 12.533 115.979 12.4866 116.397 12.4866C117.039 12.4866 117.604 12.5949 118.092 12.8116C118.587 13.0205 118.997 13.3223 119.322 13.7169C119.655 14.1038 119.906 14.5719 120.076 15.1213C120.247 15.6707 120.332 16.2781 120.332 16.9436V24.43H118.254V16.9436C118.254 16.0537 118.049 15.3651 117.639 14.8776C117.236 14.3824 116.621 14.1347 115.793 14.1347C115.182 14.1347 114.609 14.2818 114.076 14.5758C113.549 14.8698 113.062 15.2683 112.613 15.7713V24.43H110.535V12.6723H111.777C112.071 12.6723 112.253 12.8154 112.323 13.1017L112.485 14.3785Z" fill="white"/>
<path d="M106.141 17.2686C106.141 16.7888 106.071 16.3516 105.932 15.957C105.8 15.5546 105.603 15.2103 105.34 14.924C105.085 14.63 104.771 14.4056 104.4 14.2508C104.028 14.0883 103.607 14.0071 103.135 14.0071C102.144 14.0071 101.359 14.2972 100.778 14.8776C100.206 15.4502 99.8499 16.2472 99.7106 17.2686H106.141ZM107.812 22.7818C107.557 23.0913 107.251 23.3622 106.895 23.5943C106.539 23.8187 106.156 24.0044 105.746 24.1514C105.344 24.2984 104.926 24.4068 104.493 24.4764C104.059 24.5538 103.63 24.5925 103.204 24.5925C102.392 24.5925 101.641 24.4571 100.953 24.1862C100.272 23.9077 99.6796 23.5053 99.1767 22.9791C98.6814 22.4452 98.2946 21.7875 98.016 21.006C97.7374 20.2245 97.5981 19.3269 97.5981 18.3132C97.5981 17.493 97.722 16.7269 97.9696 16.015C98.2249 15.3032 98.5886 14.688 99.0606 14.1696C99.5326 13.6434 100.109 13.2333 100.79 12.9392C101.471 12.6375 102.237 12.4866 103.088 12.4866C103.792 12.4866 104.442 12.6065 105.038 12.8464C105.642 13.0785 106.16 13.419 106.593 13.8678C107.034 14.3088 107.379 14.8582 107.626 15.516C107.874 16.1659 107.998 16.9088 107.998 17.7445C107.998 18.0695 107.963 18.2861 107.893 18.3944C107.824 18.5028 107.692 18.5569 107.499 18.5569H99.6409C99.6642 19.2998 99.7647 19.9459 99.9427 20.4953C100.128 21.0447 100.384 21.5051 100.709 21.8765C101.034 22.2402 101.421 22.5149 101.869 22.7006C102.318 22.8785 102.821 22.9675 103.378 22.9675C103.897 22.9675 104.342 22.9095 104.713 22.7934C105.092 22.6696 105.417 22.5381 105.688 22.3988C105.959 22.2595 106.183 22.1318 106.361 22.0158C106.547 21.892 106.706 21.8301 106.837 21.8301C107.007 21.8301 107.139 21.8958 107.232 22.0274L107.812 22.7818Z" fill="white"/>
<path d="M90.4897 18.6847C90.9075 18.6847 91.2751 18.6267 91.5923 18.5106C91.9096 18.3946 92.1765 18.2321 92.3932 18.0232C92.6099 17.8142 92.7723 17.5666 92.8807 17.2803C92.989 16.9863 93.0432 16.6652 93.0432 16.317C93.0432 15.5973 92.8226 15.0247 92.3816 14.5991C91.9483 14.1736 91.3176 13.9608 90.4897 13.9608C89.654 13.9608 89.0156 14.1736 88.5745 14.5991C88.1412 15.0247 87.9246 15.5973 87.9246 16.317C87.9246 16.6652 87.9787 16.9863 88.0871 17.2803C88.2031 17.5666 88.3695 17.8142 88.5862 18.0232C88.8028 18.2321 89.0698 18.3946 89.387 18.5106C89.7043 18.6267 90.0718 18.6847 90.4897 18.6847ZM94.2155 25.0685C94.2155 24.7822 94.1342 24.5501 93.9717 24.3721C93.8092 24.1941 93.5887 24.0548 93.3101 23.9542C93.0393 23.8537 92.722 23.784 92.3584 23.7453C91.9947 23.6989 91.6078 23.6641 91.1977 23.6409C90.7953 23.6176 90.3852 23.5944 89.9674 23.5712C89.5495 23.548 89.1471 23.5093 88.7603 23.4552C88.3269 23.6563 87.971 23.9117 87.6924 24.2212C87.4216 24.523 87.2862 24.8789 87.2862 25.289C87.2862 25.5521 87.352 25.7959 87.4835 26.0203C87.6228 26.2524 87.8317 26.4497 88.1103 26.6122C88.3888 26.7824 88.737 26.914 89.1549 27.0068C89.5805 27.1074 90.0796 27.1577 90.6522 27.1577C91.2093 27.1577 91.7084 27.1074 92.1494 27.0068C92.5905 26.9062 92.9619 26.7631 93.2637 26.5774C93.5732 26.3917 93.8092 26.1712 93.9717 25.9158C94.1342 25.6604 94.2155 25.378 94.2155 25.0685ZM96.3163 13.1367V13.9027C96.3163 14.1581 96.1538 14.3206 95.8288 14.3902L94.494 14.5643C94.7571 15.075 94.8887 15.6399 94.8887 16.2589C94.8887 16.8315 94.7765 17.3538 94.5521 17.8258C94.3354 18.2901 94.0336 18.6886 93.6467 19.0213C93.2598 19.3541 92.7956 19.6094 92.2539 19.7874C91.7123 19.9654 91.1242 20.0544 90.4897 20.0544C89.9403 20.0544 89.4218 19.9886 88.9344 19.857C88.6867 20.0118 88.4972 20.1782 88.3656 20.3561C88.2341 20.5264 88.1683 20.7005 88.1683 20.8784C88.1683 21.157 88.2805 21.3698 88.5049 21.5168C88.737 21.6561 89.0388 21.7567 89.4102 21.8186C89.7817 21.8805 90.2034 21.9192 90.6754 21.9347C91.1551 21.9501 91.6426 21.9772 92.1378 22.0159C92.6408 22.0469 93.1283 22.1049 93.6003 22.19C94.08 22.2751 94.5056 22.4144 94.877 22.6079C95.2485 22.8013 95.5464 23.0683 95.7708 23.4087C96.0029 23.7492 96.119 24.1903 96.119 24.7319C96.119 25.2349 95.9913 25.7224 95.736 26.1944C95.4883 26.6664 95.1285 27.0842 94.6565 27.4479C94.1845 27.8193 93.6042 28.1134 92.9155 28.33C92.2346 28.5544 91.4646 28.6666 90.6057 28.6666C89.7468 28.6666 88.9963 28.5815 88.354 28.4113C87.7118 28.241 87.1779 28.0128 86.7523 27.7265C86.3267 27.4402 86.0056 27.1074 85.7889 26.7283C85.58 26.3569 85.4755 25.9661 85.4755 25.556C85.4755 24.9756 85.6574 24.4843 86.021 24.0819C86.3847 23.6796 86.8838 23.3584 87.5183 23.1186C87.1701 22.9638 86.8916 22.7587 86.6826 22.5034C86.4814 22.2403 86.3809 21.8882 86.3809 21.4472C86.3809 21.2769 86.4118 21.1028 86.4737 20.9249C86.5356 20.7392 86.6285 20.5573 86.7523 20.3793C86.8838 20.1936 87.0424 20.0195 87.2282 19.857C87.4139 19.6945 87.6305 19.5514 87.8781 19.4276C87.2978 19.1026 86.8451 18.6731 86.5201 18.1392C86.1951 17.5976 86.0327 16.9708 86.0327 16.2589C86.0327 15.6863 86.141 15.1679 86.3576 14.7036C86.582 14.2316 86.8916 13.8331 87.2862 13.5081C87.6808 13.1754 88.149 12.92 88.6906 12.7421C89.24 12.5641 89.8397 12.4751 90.4897 12.4751C91.0004 12.4751 91.4763 12.5331 91.9173 12.6492C92.3584 12.7575 92.7607 12.92 93.1244 13.1367H96.3163Z" fill="white"/>
<path d="M81.2258 19.1373C80.274 19.1683 79.4615 19.2456 78.7883 19.3694C78.1229 19.4855 77.5773 19.6403 77.1518 19.8337C76.7339 20.0272 76.4283 20.2554 76.2348 20.5185C76.0491 20.7816 75.9563 21.0756 75.9563 21.4006C75.9563 21.7101 76.0066 21.9771 76.1072 22.2015C76.2077 22.4259 76.3432 22.6116 76.5134 22.7586C76.6914 22.8979 76.8964 23.0024 77.1286 23.072C77.3684 23.1339 77.6238 23.1649 77.8946 23.1649C78.2583 23.1649 78.591 23.13 78.8928 23.0604C79.1946 22.983 79.477 22.8747 79.7401 22.7354C80.0109 22.5961 80.2663 22.4298 80.5061 22.2363C80.7538 22.0429 80.9936 21.8223 81.2258 21.5747V19.1373ZM74.5518 14.3321C75.2018 13.7053 75.9021 13.2372 76.6527 12.9277C77.4032 12.6181 78.2351 12.4634 79.1481 12.4634C79.8059 12.4634 80.3901 12.5717 80.9008 12.7884C81.4115 13.005 81.8409 13.3068 82.1891 13.6937C82.5373 14.0806 82.8004 14.5487 82.9784 15.0981C83.1564 15.6475 83.2453 16.2511 83.2453 16.9088V24.43H82.3284C82.1272 24.43 81.9725 24.3991 81.8641 24.3372C81.7558 24.2675 81.6707 24.136 81.6088 23.9425L81.3766 22.8283C81.0671 23.1146 80.7654 23.3699 80.4713 23.5943C80.1773 23.811 79.8678 23.9967 79.5428 24.1514C79.2178 24.2985 78.8696 24.4107 78.4982 24.488C78.1345 24.5732 77.7282 24.6157 77.2794 24.6157C76.8229 24.6157 76.3935 24.5538 75.9911 24.43C75.5887 24.2985 75.2366 24.105 74.9349 23.8497C74.6408 23.5943 74.4048 23.2732 74.2268 22.8863C74.0566 22.4917 73.9715 22.0274 73.9715 21.4935C73.9715 21.0292 74.0992 20.5843 74.3545 20.1587C74.6099 19.7254 75.0238 19.3424 75.5965 19.0096C76.1691 18.6769 76.9158 18.4061 77.8366 18.1971C78.7574 17.9805 79.8871 17.8567 81.2258 17.8257V16.9088C81.2258 15.9957 81.0284 15.307 80.6338 14.8428C80.2392 14.3708 79.6627 14.1348 78.9044 14.1348C78.3937 14.1348 77.9642 14.2005 77.616 14.3321C77.2756 14.4559 76.9777 14.599 76.7223 14.7615C76.4747 14.9163 76.258 15.0594 76.0723 15.191C75.8944 15.3148 75.7164 15.3767 75.5384 15.3767C75.3991 15.3767 75.2792 15.3419 75.1786 15.2722C75.078 15.1949 74.9929 15.102 74.9233 14.9937L74.5518 14.3321Z" fill="white"/>
<path d="M71.459 12.6725V24.4302H69.393V12.6725H71.459ZM71.9001 8.98152C71.9001 9.18271 71.8575 9.37229 71.7724 9.55026C71.695 9.72049 71.5867 9.87525 71.4474 10.0145C71.3159 10.1461 71.1573 10.2505 70.9716 10.3279C70.7936 10.4053 70.604 10.444 70.4028 10.444C70.2016 10.444 70.0121 10.4053 69.8341 10.3279C69.6639 10.2505 69.513 10.1461 69.3814 10.0145C69.2499 9.87525 69.1454 9.72049 69.068 9.55026C68.9907 9.37229 68.952 9.18271 68.952 8.98152C68.952 8.78034 68.9907 8.59076 69.068 8.41279C69.1454 8.22708 69.2499 8.06845 69.3814 7.93691C69.513 7.79763 69.6639 7.6893 69.8341 7.61192C70.0121 7.53454 70.2016 7.49585 70.4028 7.49585C70.604 7.49585 70.7936 7.53454 70.9716 7.61192C71.1573 7.6893 71.3159 7.79763 71.4474 7.93691C71.5867 8.06845 71.695 8.22708 71.7724 8.41279C71.8575 8.59076 71.9001 8.78034 71.9001 8.98152Z" fill="white"/>
<path d="M67.5764 7.79761L60.798 24.4302H58.7784L52 7.79761H53.7991C54.0002 7.79761 54.1627 7.8479 54.2865 7.9485C54.4104 8.04909 54.5032 8.17676 54.5651 8.33152L59.2543 20.066C59.3549 20.3291 59.4516 20.6154 59.5444 20.9249C59.645 21.2344 59.734 21.5594 59.8114 21.8999C59.8888 21.5594 59.97 21.2344 60.0551 20.9249C60.1403 20.6154 60.2331 20.3291 60.3337 20.066L65.0112 8.33152C65.0577 8.19998 65.1467 8.08004 65.2782 7.97171C65.4175 7.85564 65.5839 7.79761 65.7773 7.79761H67.5764Z" fill="white"/>
<path d="M16.6712 13.8629C12.2718 0.948615 14.647 0.0441025 1.56212 0.0441025C3.58734 4.92421 6.05216 11.0196 8.07738 15.8997C10.9413 15.2208 13.8062 14.5418 16.6701 13.8629M21.5603 14.4163C20.7067 16.8925 20.0547 18.8856 19.2011 21.3629C18.5385 19.4177 17.8759 17.4725 17.2132 15.5272C11.4758 17.5384 5.73739 19.5507 0 21.5619C3.34619 21.1969 6.69238 20.8309 10.0386 20.4659L14.8252 32H23.6218C26.6521 24.6979 29.483 17.879 32.5133 10.5769C28.862 11.857 25.2106 13.1372 21.5592 14.4173L21.5603 14.4163ZM36.886 0.0441025C25.297 -0.261303 26.3395 0.744302 22.4673 11.9805C29.7647 10.2502 41.3333 7.15464 41.3333 7.15464L34.1074 6.73643C35.0336 4.50495 35.9598 2.27452 36.886 0.043039V0.0441025Z" fill="#F59E0B"/>
</svg>
