<svg width="323" height="48" viewBox="0 0 323 48" fill="none" xmlns="http://www.w3.org/2000/svg">
<path d="M321.818 21.9162C321.679 22.1716 321.464 22.2992 321.174 22.2992C321 22.2992 320.802 22.2354 320.582 22.1077C320.361 21.98 320.089 21.8408 319.764 21.6899C319.45 21.5274 319.073 21.3823 318.632 21.2546C318.191 21.1153 317.669 21.0457 317.065 21.0457C316.543 21.0457 316.073 21.1153 315.655 21.2546C315.237 21.3823 314.877 21.5622 314.575 21.7943C314.285 22.0265 314.059 22.2992 313.896 22.6126C313.745 22.9144 313.67 23.2452 313.67 23.605C313.67 24.0577 313.798 24.4349 314.053 24.7367C314.32 25.0384 314.668 25.2996 315.098 25.5201C315.527 25.7407 316.015 25.938 316.56 26.1121C317.106 26.2746 317.663 26.4545 318.232 26.6518C318.812 26.8375 319.375 27.0464 319.92 27.2786C320.466 27.5107 320.953 27.8009 321.383 28.1491C321.812 28.4973 322.155 28.9267 322.41 29.4374C322.677 29.9365 322.81 30.5401 322.81 31.2481C322.81 32.0606 322.665 32.815 322.375 33.5114C322.085 34.1962 321.656 34.794 321.087 35.3047C320.518 35.8038 319.822 36.1984 318.998 36.4886C318.173 36.7787 317.222 36.9238 316.142 36.9238C314.912 36.9238 313.798 36.7265 312.8 36.3319C311.801 35.9256 310.954 35.4091 310.258 34.7824L310.989 33.5985C311.082 33.4476 311.192 33.3315 311.32 33.2503C311.447 33.169 311.61 33.1284 311.807 33.1284C312.016 33.1284 312.237 33.2096 312.469 33.3721C312.701 33.5346 312.979 33.7145 313.304 33.9119C313.641 34.1092 314.047 34.2891 314.523 34.4516C314.999 34.6141 315.591 34.6953 316.299 34.6953C316.903 34.6953 317.431 34.6199 317.883 34.469C318.336 34.3065 318.713 34.0918 319.015 33.8248C319.317 33.5578 319.537 33.2503 319.677 32.9021C319.827 32.5539 319.903 32.1824 319.903 31.7878C319.903 31.3003 319.769 30.8999 319.502 30.5865C319.247 30.2615 318.905 29.9888 318.475 29.7682C318.046 29.5361 317.553 29.3388 316.995 29.1763C316.45 29.0022 315.887 28.8223 315.307 28.6366C314.738 28.4508 314.175 28.2419 313.618 28.0098C313.072 27.766 312.585 27.4643 312.155 27.1045C311.726 26.7446 311.378 26.3036 311.111 25.7813C310.855 25.2474 310.728 24.6032 310.728 23.8487C310.728 23.1755 310.867 22.5314 311.146 21.9162C311.424 21.2894 311.83 20.7439 312.364 20.2796C312.898 19.8038 313.554 19.4265 314.332 19.148C315.109 18.8694 315.997 18.7301 316.995 18.7301C318.156 18.7301 319.195 18.9158 320.112 19.2873C321.04 19.6471 321.841 20.1462 322.514 20.7845L321.818 21.9162Z" fill="#141414"/>
<path d="M303.796 28.7062C302.368 28.7526 301.15 28.8687 300.14 29.0544C299.142 29.2285 298.323 29.4606 297.685 29.7508C297.058 30.041 296.6 30.3834 296.31 30.778C296.031 31.1726 295.892 31.6137 295.892 32.1012C295.892 32.5655 295.967 32.9659 296.118 33.3025C296.269 33.6391 296.472 33.9177 296.727 34.1382C296.994 34.3471 297.302 34.5038 297.65 34.6083C298.01 34.7011 298.393 34.7475 298.799 34.7475C299.345 34.7475 299.844 34.6953 300.297 34.5909C300.749 34.4748 301.173 34.3123 301.567 34.1034C301.974 33.8944 302.357 33.6449 302.717 33.3547C303.088 33.0646 303.448 32.7338 303.796 32.3623V28.7062ZM293.785 21.4984C294.76 20.5582 295.811 19.856 296.936 19.3917C298.062 18.9274 299.31 18.6953 300.68 18.6953C301.666 18.6953 302.542 18.8578 303.309 19.1828C304.075 19.5078 304.719 19.9605 305.241 20.5408C305.763 21.1211 306.158 21.8234 306.425 22.6474C306.692 23.4715 306.825 24.3769 306.825 25.3634V36.6453H305.45C305.148 36.6453 304.916 36.5988 304.754 36.506C304.591 36.4015 304.463 36.2042 304.371 35.914L304.022 34.2426C303.558 34.6721 303.105 35.0551 302.664 35.3917C302.223 35.7167 301.759 35.9953 301.272 36.2274C300.784 36.4479 300.262 36.6162 299.705 36.7323C299.159 36.86 298.55 36.9238 297.877 36.9238C297.192 36.9238 296.548 36.831 295.944 36.6453C295.34 36.4479 294.812 36.1578 294.36 35.7747C293.919 35.3917 293.565 34.91 293.298 34.3297C293.042 33.7378 292.915 33.0413 292.915 32.2405C292.915 31.5441 293.106 30.8767 293.489 30.2383C293.872 29.5883 294.493 29.0138 295.352 28.5147C296.211 28.0156 297.331 27.6094 298.712 27.296C300.093 26.971 301.788 26.7853 303.796 26.7388V25.3634C303.796 23.9938 303.5 22.9608 302.908 22.2644C302.316 21.5564 301.451 21.2024 300.314 21.2024C299.548 21.2024 298.904 21.301 298.381 21.4984C297.871 21.6841 297.424 21.8988 297.041 22.1425C296.669 22.3747 296.344 22.5894 296.066 22.7867C295.799 22.9724 295.532 23.0653 295.265 23.0653C295.056 23.0653 294.876 23.0131 294.725 22.9086C294.574 22.7925 294.447 22.6532 294.342 22.4907L293.785 21.4984Z" fill="#141414"/>
<path d="M289.884 22.1425C289.791 22.2702 289.698 22.3689 289.605 22.4385C289.512 22.5082 289.385 22.543 289.222 22.543C289.048 22.543 288.857 22.4733 288.648 22.3341C288.439 22.1832 288.178 22.0207 287.864 21.8466C287.563 21.6725 287.185 21.5158 286.733 21.3765C286.292 21.2256 285.746 21.1502 285.096 21.1502C284.226 21.1502 283.46 21.3068 282.798 21.6202C282.136 21.922 281.579 22.3631 281.127 22.9434C280.686 23.5238 280.349 24.226 280.117 25.05C279.896 25.8741 279.786 26.7969 279.786 27.8183C279.786 28.8861 279.908 29.8379 280.152 30.6736C280.395 31.4976 280.738 32.194 281.179 32.7628C281.631 33.3199 282.171 33.7494 282.798 34.0511C283.436 34.3413 284.15 34.4864 284.939 34.4864C285.694 34.4864 286.315 34.3993 286.802 34.2252C287.29 34.0395 287.69 33.8364 288.004 33.6159C288.329 33.3954 288.596 33.198 288.804 33.0239C289.025 32.8382 289.24 32.7454 289.449 32.7454C289.704 32.7454 289.901 32.844 290.041 33.0413L290.911 34.173C290.528 34.6489 290.093 35.0551 289.605 35.3917C289.118 35.7283 288.59 36.0127 288.021 36.2448C287.464 36.4654 286.878 36.6278 286.263 36.7323C285.647 36.8368 285.021 36.889 284.382 36.889C283.28 36.889 282.252 36.6859 281.301 36.2796C280.361 35.8734 279.542 35.2873 278.846 34.5212C278.149 33.7436 277.604 32.7918 277.209 31.6659C276.815 30.5401 276.617 29.2575 276.617 27.8183C276.617 26.5067 276.797 25.2938 277.157 24.1795C277.528 23.0653 278.062 22.1077 278.759 21.3068C279.467 20.4944 280.331 19.8618 281.353 19.4091C282.386 18.9565 283.57 18.7301 284.905 18.7301C286.147 18.7301 287.238 18.9333 288.178 19.3395C289.129 19.7341 289.971 20.2971 290.702 21.0283L289.884 22.1425Z" fill="#141414"/>
<path d="M272.518 19.0087V36.6453H269.419V19.0087H272.518ZM273.179 13.4723C273.179 13.774 273.115 14.0584 272.988 14.3254C272.872 14.5807 272.709 14.8128 272.5 15.0218C272.303 15.2191 272.065 15.3758 271.786 15.4918C271.52 15.6079 271.235 15.6659 270.933 15.6659C270.632 15.6659 270.347 15.6079 270.08 15.4918C269.825 15.3758 269.599 15.2191 269.401 15.0218C269.204 14.8128 269.047 14.5807 268.931 14.3254C268.815 14.0584 268.757 13.774 268.757 13.4723C268.757 13.1705 268.815 12.8861 268.931 12.6192C269.047 12.3406 269.204 12.1026 269.401 11.9053C269.599 11.6964 269.825 11.5339 270.08 11.4178C270.347 11.3018 270.632 11.2437 270.933 11.2437C271.235 11.2437 271.52 11.3018 271.786 11.4178C272.065 11.5339 272.303 11.6964 272.5 11.9053C272.709 12.1026 272.872 12.3406 272.988 12.6192C273.115 12.8861 273.179 13.1705 273.179 13.4723Z" fill="#141414"/>
<path d="M259.503 22.543C260.06 21.3359 260.745 20.3957 261.558 19.7225C262.37 19.0377 263.363 18.6953 264.535 18.6953C264.906 18.6953 265.26 18.7359 265.597 18.8172C265.945 18.8984 266.253 19.0261 266.52 19.2002L266.293 21.5158C266.224 21.8059 266.05 21.951 265.771 21.951C265.609 21.951 265.371 21.9162 265.057 21.8466C264.744 21.7769 264.39 21.7421 263.995 21.7421C263.438 21.7421 262.939 21.8233 262.498 21.9858C262.068 22.1483 261.68 22.3921 261.331 22.7171C260.995 23.0305 260.687 23.4251 260.409 23.901C260.142 24.3652 259.898 24.8992 259.677 25.5027V36.6453H256.561V19.0087H258.337C258.673 19.0087 258.906 19.0725 259.033 19.2002C259.161 19.3279 259.248 19.5484 259.294 19.8618L259.503 22.543Z" fill="#141414"/>
<path d="M249.969 25.9032C249.969 25.1835 249.864 24.5278 249.655 23.9358C249.458 23.3322 249.162 22.8157 248.767 22.3863C248.384 21.9452 247.914 21.6086 247.357 21.3765C246.8 21.1328 246.167 21.0109 245.459 21.0109C243.974 21.0109 242.796 21.4461 241.925 22.3167C241.066 23.1756 240.532 24.3711 240.323 25.9032H249.969ZM252.476 34.173C252.093 34.6373 251.634 35.0435 251.1 35.3917C250.566 35.7283 249.992 36.0069 249.377 36.2274C248.773 36.448 248.146 36.6105 247.496 36.7149C246.846 36.831 246.202 36.889 245.564 36.889C244.345 36.889 243.219 36.6859 242.186 36.2797C241.165 35.8618 240.277 35.2583 239.523 34.469C238.78 33.6681 238.199 32.6815 237.782 31.5093C237.364 30.337 237.155 28.9906 237.155 27.4701C237.155 26.2398 237.34 25.0907 237.712 24.0229C238.095 22.955 238.64 22.0323 239.348 21.2546C240.056 20.4654 240.921 19.8502 241.943 19.4091C242.964 18.9565 244.113 18.7301 245.39 18.7301C246.446 18.7301 247.421 18.9101 248.315 19.2699C249.22 19.6181 249.998 20.1288 250.648 20.802C251.309 21.4636 251.826 22.2876 252.197 23.2742C252.569 24.2492 252.754 25.3634 252.754 26.617C252.754 27.1045 252.702 27.4295 252.598 27.592C252.493 27.7544 252.296 27.8357 252.006 27.8357H240.219C240.254 28.95 240.405 29.9191 240.672 30.7432C240.95 31.5673 241.333 32.2579 241.821 32.815C242.308 33.3605 242.889 33.7726 243.562 34.0512C244.235 34.3181 244.989 34.4516 245.825 34.4516C246.603 34.4516 247.27 34.3645 247.827 34.1904C248.396 34.0047 248.883 33.8074 249.29 33.5985C249.696 33.3896 250.033 33.198 250.3 33.0239C250.578 32.8382 250.816 32.7454 251.013 32.7454C251.269 32.7454 251.466 32.844 251.605 33.0414L252.476 34.173ZM250.526 11.4178L246.469 15.9097C246.307 16.0838 246.144 16.2115 245.982 16.2927C245.831 16.3624 245.634 16.3972 245.39 16.3972H243.544L246.121 12.1839C246.284 11.9169 246.458 11.7254 246.643 11.6094C246.841 11.4817 247.125 11.4178 247.496 11.4178H250.526Z" fill="#141414"/>
<path d="M221.796 32.3972C222.365 33.1632 222.986 33.7029 223.659 34.0163C224.344 34.3297 225.093 34.4864 225.905 34.4864C227.565 34.4864 228.836 33.9003 229.718 32.728C230.6 31.5557 231.041 29.8089 231.041 27.4875C231.041 25.3286 230.647 23.7443 229.857 22.7345C229.08 21.7131 227.966 21.2024 226.515 21.2024C225.505 21.2024 224.623 21.4345 223.868 21.8988C223.125 22.3631 222.435 23.0189 221.796 23.8662V32.3972ZM221.796 21.5506C222.539 20.6917 223.375 20.0069 224.304 19.4962C225.244 18.9855 226.323 18.7301 227.542 18.7301C228.575 18.7301 229.503 18.9275 230.327 19.3221C231.163 19.7167 231.871 20.2913 232.452 21.0457C233.032 21.7885 233.473 22.6939 233.775 23.7617C234.088 24.8295 234.245 26.0308 234.245 27.3656C234.245 28.7933 234.071 30.0932 233.722 31.2655C233.374 32.4378 232.869 33.4418 232.208 34.2775C231.558 35.1016 230.763 35.7457 229.823 36.21C228.882 36.6627 227.826 36.889 226.654 36.889C225.493 36.889 224.512 36.6743 223.712 36.2448C222.922 35.8038 222.232 35.1828 221.64 34.3819L221.483 35.9837C221.39 36.4247 221.123 36.6453 220.682 36.6453H218.68V11H221.796V21.5506Z" fill="#141414"/>
<path d="M213.302 36.6453H209.924V11.6964H213.302V36.6453Z" fill="#141414"/>
<path d="M195.492 21.9162C195.353 22.1716 195.138 22.2992 194.848 22.2992C194.674 22.2992 194.476 22.2354 194.256 22.1077C194.035 21.98 193.762 21.8408 193.437 21.6899C193.124 21.5274 192.747 21.3823 192.306 21.2546C191.865 21.1153 191.342 21.0457 190.739 21.0457C190.216 21.0457 189.746 21.1153 189.329 21.2546C188.911 21.3823 188.551 21.5622 188.249 21.7943C187.959 22.0265 187.733 22.2992 187.57 22.6126C187.419 22.9144 187.344 23.2452 187.344 23.605C187.344 24.0577 187.471 24.4349 187.727 24.7367C187.994 25.0384 188.342 25.2996 188.771 25.5201C189.201 25.7407 189.688 25.938 190.234 26.1121C190.779 26.2746 191.337 26.4545 191.905 26.6518C192.486 26.8375 193.049 27.0464 193.594 27.2786C194.14 27.5107 194.627 27.8009 195.057 28.1491C195.486 28.4973 195.828 28.9267 196.084 29.4374C196.351 29.9365 196.484 30.5401 196.484 31.2481C196.484 32.0606 196.339 32.815 196.049 33.5114C195.759 34.1962 195.329 34.794 194.761 35.3047C194.192 35.8038 193.495 36.1984 192.671 36.4886C191.847 36.7787 190.895 36.9238 189.816 36.9238C188.586 36.9238 187.471 36.7265 186.473 36.3319C185.475 35.9256 184.628 35.4091 183.931 34.7824L184.663 33.5985C184.755 33.4476 184.866 33.3315 184.993 33.2503C185.121 33.169 185.284 33.1284 185.481 33.1284C185.69 33.1284 185.91 33.2096 186.142 33.3721C186.375 33.5346 186.653 33.7145 186.978 33.9119C187.315 34.1092 187.721 34.2891 188.197 34.4516C188.673 34.6141 189.265 34.6953 189.973 34.6953C190.576 34.6953 191.104 34.6199 191.557 34.469C192.01 34.3065 192.387 34.0918 192.689 33.8248C192.991 33.5578 193.211 33.2503 193.35 32.9021C193.501 32.5539 193.577 32.1824 193.577 31.7878C193.577 31.3003 193.443 30.8999 193.176 30.5865C192.921 30.2615 192.578 29.9888 192.149 29.7682C191.72 29.5361 191.226 29.3388 190.669 29.1763C190.124 29.0022 189.561 28.8223 188.98 28.6366C188.412 28.4508 187.849 28.2419 187.292 28.0098C186.746 27.766 186.259 27.4643 185.829 27.1045C185.4 26.7446 185.051 26.3036 184.785 25.7813C184.529 25.2474 184.401 24.6032 184.401 23.8487C184.401 23.1755 184.541 22.5314 184.819 21.9162C185.098 21.2894 185.504 20.7439 186.038 20.2796C186.572 19.8038 187.228 19.4265 188.005 19.148C188.783 18.8694 189.671 18.7301 190.669 18.7301C191.83 18.7301 192.869 18.9158 193.786 19.2873C194.714 19.6471 195.515 20.1462 196.188 20.7845L195.492 21.9162Z" fill="#141414"/>
<path d="M168.728 21.568C169.111 21.1385 169.517 20.7497 169.947 20.4015C170.376 20.0533 170.829 19.7573 171.305 19.5136C171.792 19.2582 172.303 19.0667 172.837 18.9391C173.382 18.7998 173.969 18.7301 174.595 18.7301C175.559 18.7301 176.406 18.8926 177.137 19.2176C177.88 19.531 178.495 19.9837 178.983 20.5756C179.482 21.156 179.859 21.8582 180.114 22.6823C180.37 23.5063 180.497 24.4175 180.497 25.4157V36.6453H177.381V25.4157C177.381 24.0809 177.073 23.0479 176.458 22.3166C175.855 21.5738 174.932 21.2024 173.69 21.2024C172.773 21.2024 171.914 21.4229 171.113 21.864C170.324 22.305 169.593 22.9028 168.92 23.6572V36.6453H165.803V19.0087H167.666C168.107 19.0087 168.38 19.2234 168.484 19.6529L168.728 21.568Z" fill="#141414"/>
<path d="M159.211 25.9031C159.211 25.1835 159.107 24.5277 158.898 23.9358C158.7 23.3322 158.404 22.8157 158.01 22.3863C157.627 21.9452 157.157 21.6086 156.6 21.3765C156.042 21.1327 155.41 21.0109 154.702 21.0109C153.216 21.0109 152.038 21.4461 151.168 22.3166C150.309 23.1755 149.775 24.371 149.566 25.9031H159.211ZM161.718 34.173C161.335 34.6373 160.877 35.0435 160.343 35.3917C159.809 35.7283 159.234 36.0069 158.619 36.2274C158.016 36.4479 157.389 36.6104 156.739 36.7149C156.089 36.831 155.445 36.889 154.806 36.889C153.588 36.889 152.462 36.6859 151.429 36.2796C150.407 35.8618 149.519 35.2582 148.765 34.469C148.022 33.6681 147.442 32.6815 147.024 31.5092C146.606 30.337 146.397 28.9906 146.397 27.4701C146.397 26.2397 146.583 25.0907 146.954 24.0228C147.337 22.955 147.883 22.0323 148.591 21.2546C149.299 20.4654 150.164 19.8502 151.185 19.4091C152.206 18.9565 153.356 18.7301 154.632 18.7301C155.688 18.7301 156.663 18.91 157.557 19.2699C158.463 19.6181 159.24 20.1288 159.89 20.802C160.552 21.4635 161.068 22.2876 161.44 23.2742C161.811 24.2492 161.997 25.3634 161.997 26.617C161.997 27.1045 161.945 27.4294 161.84 27.5919C161.736 27.7544 161.538 27.8357 161.248 27.8357H149.461C149.496 28.9499 149.647 29.9191 149.914 30.7432C150.193 31.5673 150.576 32.2579 151.063 32.815C151.551 33.3605 152.131 33.7726 152.804 34.0511C153.477 34.3181 154.232 34.4516 155.068 34.4516C155.845 34.4516 156.513 34.3645 157.07 34.1904C157.638 34.0047 158.126 33.8074 158.532 33.5985C158.938 33.3895 159.275 33.198 159.542 33.0239C159.821 32.8382 160.058 32.7454 160.256 32.7454C160.511 32.7454 160.708 32.844 160.848 33.0413L161.718 34.173Z" fill="#141414"/>
<path d="M135.734 28.0272C136.361 28.0272 136.913 27.9401 137.388 27.766C137.864 27.5919 138.265 27.3482 138.59 27.0348C138.915 26.7214 139.158 26.35 139.321 25.9206C139.483 25.4795 139.565 24.9978 139.565 24.4755C139.565 23.3961 139.234 22.5372 138.572 21.8988C137.922 21.2604 136.976 20.9412 135.734 20.9412C134.481 20.9412 133.523 21.2604 132.862 21.8988C132.212 22.5372 131.887 23.3961 131.887 24.4755C131.887 24.9978 131.968 25.4795 132.131 25.9206C132.305 26.35 132.554 26.7214 132.879 27.0348C133.204 27.3482 133.605 27.5919 134.081 27.766C134.556 27.9401 135.108 28.0272 135.734 28.0272ZM141.323 37.6028C141.323 37.1734 141.201 36.8252 140.958 36.5582C140.714 36.2913 140.383 36.0823 139.965 35.9314C139.559 35.7806 139.083 35.6761 138.538 35.6181C137.992 35.5484 137.412 35.4962 136.796 35.4614C136.193 35.4265 135.578 35.3917 134.951 35.3569C134.324 35.3221 133.721 35.264 133.14 35.1828C132.49 35.4846 131.956 35.8676 131.539 36.3319C131.132 36.7845 130.929 37.3185 130.929 37.9336C130.929 38.3283 131.028 38.6939 131.225 39.0305C131.434 39.3787 131.748 39.6746 132.165 39.9184C132.583 40.1737 133.106 40.371 133.732 40.5103C134.371 40.6612 135.119 40.7367 135.978 40.7367C136.814 40.7367 137.563 40.6612 138.224 40.5103C138.886 40.3594 139.443 40.1447 139.896 39.8662C140.36 39.5876 140.714 39.2568 140.958 38.8738C141.201 38.4907 141.323 38.0671 141.323 37.6028ZM144.474 19.7051V20.8542C144.474 21.2372 144.231 21.481 143.743 21.5854L141.741 21.8466C142.136 22.6126 142.333 23.4599 142.333 24.3885C142.333 25.2474 142.165 26.0308 141.828 26.7388C141.503 27.4352 141.05 28.033 140.47 28.5321C139.89 29.0312 139.193 29.4142 138.381 29.6812C137.568 29.9481 136.686 30.0816 135.734 30.0816C134.91 30.0816 134.133 29.9829 133.402 29.7856C133.03 30.0178 132.746 30.2673 132.548 30.5343C132.351 30.7896 132.252 31.0508 132.252 31.3177C132.252 31.7356 132.421 32.0548 132.757 32.2753C133.106 32.4842 133.558 32.6351 134.115 32.728C134.672 32.8208 135.305 32.8788 136.013 32.9021C136.733 32.9253 137.464 32.9659 138.207 33.0239C138.961 33.0704 139.692 33.1574 140.4 33.2851C141.12 33.4128 141.758 33.6217 142.316 33.9119C142.873 34.202 143.32 34.6025 143.656 35.1132C144.004 35.6239 144.178 36.2855 144.178 37.0979C144.178 37.8524 143.987 38.5836 143.604 39.2916C143.232 39.9996 142.693 40.6264 141.985 41.1719C141.277 41.729 140.406 42.1701 139.373 42.4951C138.352 42.8317 137.197 43 135.909 43C134.62 43 133.494 42.8723 132.531 42.617C131.568 42.3616 130.767 42.0192 130.128 41.5898C129.49 41.1603 129.008 40.6612 128.683 40.0925C128.37 39.5354 128.213 38.9492 128.213 38.3341C128.213 37.4635 128.486 36.7265 129.032 36.123C129.577 35.5194 130.326 35.0377 131.277 34.6779C130.755 34.4458 130.337 34.1382 130.024 33.7552C129.722 33.3605 129.571 32.8324 129.571 32.1708C129.571 31.9155 129.618 31.6543 129.711 31.3874C129.803 31.1088 129.943 30.836 130.128 30.5691C130.326 30.2905 130.564 30.0294 130.842 29.7856C131.121 29.5419 131.446 29.3272 131.817 29.1415C130.947 28.654 130.268 28.0098 129.78 27.2089C129.293 26.3964 129.049 25.4563 129.049 24.3885C129.049 23.5296 129.211 22.7519 129.536 22.0555C129.873 21.3475 130.337 20.7497 130.929 20.2622C131.521 19.7631 132.223 19.3801 133.036 19.1132C133.86 18.8462 134.76 18.7127 135.734 18.7127C136.501 18.7127 137.214 18.7998 137.876 18.9739C138.538 19.1364 139.141 19.3801 139.687 19.7051H144.474Z" fill="#141414"/>
<path d="M121.839 28.7062C120.411 28.7526 119.192 28.8687 118.183 29.0544C117.184 29.2285 116.366 29.4606 115.728 29.7508C115.101 30.041 114.642 30.3834 114.352 30.778C114.074 31.1726 113.934 31.6137 113.934 32.1012C113.934 32.5655 114.01 32.9659 114.161 33.3025C114.312 33.6391 114.515 33.9177 114.77 34.1382C115.037 34.3471 115.345 34.5038 115.693 34.6083C116.053 34.7011 116.436 34.7475 116.842 34.7475C117.387 34.7475 117.887 34.6953 118.339 34.5909C118.792 34.4748 119.216 34.3123 119.61 34.1034C120.016 33.8944 120.399 33.6449 120.759 33.3547C121.131 33.0646 121.49 32.7338 121.839 32.3623V28.7062ZM111.828 21.4984C112.803 20.5582 113.853 19.856 114.979 19.3917C116.105 18.9274 117.353 18.6953 118.722 18.6953C119.709 18.6953 120.585 18.8578 121.351 19.1828C122.117 19.5078 122.761 19.9605 123.284 20.5408C123.806 21.1211 124.201 21.8234 124.468 22.6474C124.735 23.4715 124.868 24.3769 124.868 25.3634V36.6453H123.493C123.191 36.6453 122.959 36.5988 122.796 36.506C122.634 36.4015 122.506 36.2042 122.413 35.914L122.065 34.2426C121.601 34.6721 121.148 35.0551 120.707 35.3917C120.266 35.7167 119.802 35.9953 119.314 36.2274C118.827 36.4479 118.304 36.6162 117.747 36.7323C117.202 36.86 116.592 36.9238 115.919 36.9238C115.234 36.9238 114.59 36.831 113.987 36.6453C113.383 36.4479 112.855 36.1578 112.402 35.7747C111.961 35.3917 111.607 34.91 111.34 34.3297C111.085 33.7378 110.957 33.0413 110.957 32.2405C110.957 31.5441 111.149 30.8767 111.532 30.2383C111.915 29.5883 112.536 29.0138 113.395 28.5147C114.254 28.0156 115.374 27.6094 116.755 27.296C118.136 26.971 119.831 26.7853 121.839 26.7388V25.3634C121.839 23.9938 121.543 22.9608 120.951 22.2644C120.359 21.5564 119.494 21.2024 118.357 21.2024C117.591 21.2024 116.946 21.301 116.424 21.4984C115.913 21.6841 115.467 21.8988 115.084 22.1425C114.712 22.3747 114.387 22.5894 114.109 22.7867C113.842 22.9724 113.575 23.0653 113.308 23.0653C113.099 23.0653 112.919 23.0131 112.768 22.9086C112.617 22.7925 112.489 22.6532 112.385 22.4907L111.828 21.4984Z" fill="#141414"/>
<path d="M107.189 19.0087V36.6453H104.09V19.0087H107.189ZM107.85 13.4723C107.85 13.774 107.786 14.0584 107.659 14.3254C107.543 14.5807 107.38 14.8128 107.171 15.0218C106.974 15.2191 106.736 15.3758 106.457 15.4918C106.19 15.6079 105.906 15.6659 105.604 15.6659C105.302 15.6659 105.018 15.6079 104.751 15.4918C104.496 15.3758 104.269 15.2191 104.072 15.0218C103.875 14.8128 103.718 14.5807 103.602 14.3254C103.486 14.0584 103.428 13.774 103.428 13.4723C103.428 13.1705 103.486 12.8861 103.602 12.6192C103.718 12.3406 103.875 12.1026 104.072 11.9053C104.269 11.6964 104.496 11.5339 104.751 11.4178C105.018 11.3018 105.302 11.2437 105.604 11.2437C105.906 11.2437 106.19 11.3018 106.457 11.4178C106.736 11.5339 106.974 11.6964 107.171 11.9053C107.38 12.1026 107.543 12.3406 107.659 12.6192C107.786 12.8861 107.85 13.1705 107.85 13.4723Z" fill="#141414"/>
<path d="M101.365 11.6964L91.197 36.6453H88.1676L78 11.6964H80.6986C81.0004 11.6964 81.2441 11.7719 81.4298 11.9227C81.6155 12.0736 81.7548 12.2651 81.8477 12.4973L88.8814 30.099C89.0323 30.4937 89.1774 30.9231 89.3167 31.3874C89.4675 31.8517 89.601 32.3391 89.7171 32.8498C89.8332 32.3391 89.955 31.8517 90.0827 31.3874C90.2104 30.9231 90.3497 30.4937 90.5005 30.099L97.5169 12.4973C97.5865 12.3 97.72 12.1201 97.9173 11.9576C98.1262 11.7835 98.3758 11.6964 98.6659 11.6964H101.365Z" fill="#141414"/>
<path d="M25.0068 20.7944C18.4078 1.42292 21.9706 0.0661538 2.34318 0.0661538C5.381 7.38632 9.07824 16.5293 12.1161 23.8495C16.4119 22.8311 20.7094 21.8128 25.0052 20.7944M32.3405 21.6244C31.06 25.3388 30.0821 28.3284 28.8017 32.0444C27.8077 29.1265 26.8138 26.2087 25.8199 23.2908C17.2138 26.3077 8.60609 29.3261 0 32.3429C5.01928 31.7954 10.0386 31.2463 15.0579 30.6988L22.2379 48H35.4327C39.9782 37.0469 44.2244 26.8184 48.77 15.8653C43.2929 17.7856 37.8159 19.7058 32.3389 21.626L32.3405 21.6244ZM55.329 0.0661538C37.9455 -0.391955 39.5093 1.11645 33.7009 17.9707C44.647 15.3753 62 10.732 62 10.732L51.1612 10.1046C52.5504 6.75742 53.9397 3.41179 55.329 0.0645585V0.0661538Z" fill="#B91C1C"/>
</svg>
